<svg width="15" height="14" viewBox="0 0 15 14" fill="none" xmlns="http://www.w3.org/2000/svg">
<path d="M6.25446 12.9375C5.94196 12.625 5.97321 12.1562 6.25446 11.8438L10.0357 8.25H1.03571C0.629456 8.25 0.285706 7.9375 0.285706 7.5V6.5C0.285706 6.09375 0.629456 5.75 1.03571 5.75H10.0357L6.25446 2.1875C5.97321 1.875 5.94196 1.40625 6.25446 1.09375L6.94196 0.40625C7.22321 0.125 7.72321 0.125 8.00446 0.40625L14.067 6.5C14.3795 6.78125 14.3795 7.25 14.067 7.53125L8.00446 13.625C7.72321 13.9062 7.25446 13.9062 6.94196 13.625L6.25446 12.9375Z" fill="#5A7184"/>
</svg>
